<?xml version="1.0" encoding="UTF-8" standalone="no"?>
<!DOCTYPE svg PUBLIC "-//W3C//DTD SVG 1.1//EN"
 "http://www.w3.org/Graphics/SVG/1.1/DTD/svg11.dtd">
<!-- Generated by graphviz version 2.47.0 (20210316.0004)
 -->
<!-- Title: dependencies Pages: 1 -->
<svg width="504pt" height="211pt"
 viewBox="0.00 0.00 504.00 211.00" xmlns="http://www.w3.org/2000/svg" xmlns:xlink="http://www.w3.org/1999/xlink">
<g id="graph0" class="graph" transform="scale(1 1) rotate(0) translate(4 207)">
<title>dependencies</title>
<polygon fill="white" stroke="transparent" points="-4,4 -4,-207 500,-207 500,4 -4,4"/>
<text text-anchor="start" x="227.01" y="-42.4" font-family="Times-12" font-weight="bold" font-size="14.00">Legend</text>
<polygon fill="#ffffb3" stroke="transparent" points="14,-10 14,-30 34,-30 34,-10 14,-10"/>
<text text-anchor="start" x="37.63" y="-15.4" font-family="Times-12" font-size="14.00"> &#160;Declarations</text>
<polygon fill="#8dd3c7" stroke="transparent" points="127,-10 127,-30 147,-30 147,-10 127,-10"/>
<text text-anchor="start" x="150.73" y="-15.4" font-family="Times-12" font-size="14.00"> &#160;Module</text>
<polygon fill="#80b1d3" stroke="transparent" points="213,-10 213,-30 233,-30 233,-10 213,-10"/>
<text text-anchor="start" x="236.78" y="-15.4" font-family="Times-12" font-size="14.00"> &#160;Bootstrap</text>
<polygon fill="#fdb462" stroke="transparent" points="310,-10 310,-30 330,-30 330,-10 310,-10"/>
<text text-anchor="start" x="333.67" y="-15.4" font-family="Times-12" font-size="14.00"> &#160;Providers</text>
<polygon fill="#fb8072" stroke="transparent" points="406,-10 406,-30 426,-30 426,-10 406,-10"/>
<text text-anchor="start" x="429.73" y="-15.4" font-family="Times-12" font-size="14.00"> &#160;Exports</text>
<g id="clust1" class="cluster">
<title>cluster_DashboardModule</title>
<polygon fill="none" stroke="black" stroke-dasharray="1,5" points="76,-70 76,-195 420,-195 420,-70 76,-70"/>
</g>
<g id="clust3" class="cluster">
<title>cluster_DashboardModule_imports</title>
<polygon fill="none" stroke="black" points="272,-78 272,-130 412,-130 412,-78 272,-78"/>
</g>
<g id="clust6" class="cluster">
<title>cluster_DashboardModule_providers</title>
<polygon fill="none" stroke="black" points="84,-78 84,-130 264,-130 264,-78 84,-78"/>
</g>
<!-- FileServiceModule -->
<g id="node1" class="node">
<title>FileServiceModule</title>
<polygon fill="#8dd3c7" stroke="black" points="403.81,-122 400.81,-126 379.81,-126 376.81,-122 280.19,-122 280.19,-86 403.81,-86 403.81,-122"/>
<text text-anchor="middle" x="342" y="-99.8" font-family="Times,serif" font-size="14.00">FileServiceModule</text>
</g>
<!-- DashboardModule -->
<g id="node2" class="node">
<title>DashboardModule</title>
<polygon fill="#8dd3c7" stroke="black" points="318.19,-187 315.19,-191 294.19,-191 291.19,-187 197.81,-187 197.81,-151 318.19,-151 318.19,-187"/>
<text text-anchor="middle" x="258" y="-164.8" font-family="Times,serif" font-size="14.00">DashboardModule</text>
</g>
<!-- FileServiceModule&#45;&gt;DashboardModule -->
<g id="edge1" class="edge">
<title>FileServiceModule&#45;&gt;DashboardModule</title>
<path fill="none" stroke="black" d="M299.22,-122.11C299.22,-122.11 299.22,-140.99 299.22,-140.99"/>
<polygon fill="black" stroke="black" points="295.72,-140.99 299.22,-150.99 302.72,-140.99 295.72,-140.99"/>
</g>
<!-- DashboardService -->
<g id="node3" class="node">
<title>DashboardService</title>
<ellipse fill="#fdb462" stroke="black" cx="174" cy="-104" rx="81.64" ry="18"/>
<text text-anchor="middle" x="174" y="-99.8" font-family="Times,serif" font-size="14.00">DashboardService</text>
</g>
<!-- DashboardService&#45;&gt;DashboardModule -->
<g id="edge2" class="edge">
<title>DashboardService&#45;&gt;DashboardModule</title>
<path fill="none" stroke="black" d="M226.86,-117.78C226.86,-117.78 226.86,-140.55 226.86,-140.55"/>
<polygon fill="black" stroke="black" points="223.36,-140.55 226.86,-150.55 230.36,-140.55 223.36,-140.55"/>
</g>
</g>
</svg>
