<?xml version="1.0" encoding="UTF-8" standalone="no"?>
<!DOCTYPE svg PUBLIC "-//W3C//DTD SVG 1.1//EN"
 "http://www.w3.org/Graphics/SVG/1.1/DTD/svg11.dtd">
<!-- Generated by graphviz version 2.47.0 (20210316.0004)
 -->
<!-- Title: dependencies Pages: 1 -->
<svg width="771pt" height="211pt"
 viewBox="0.00 0.00 771.00 211.00" xmlns="http://www.w3.org/2000/svg" xmlns:xlink="http://www.w3.org/1999/xlink">
<g id="graph0" class="graph" transform="scale(1 1) rotate(0) translate(4 207)">
<title>dependencies</title>
<polygon fill="white" stroke="transparent" points="-4,4 -4,-207 767,-207 767,4 -4,4"/>
<text text-anchor="start" x="360.51" y="-42.4" font-family="Times-12" font-weight="bold" font-size="14.00">Legend</text>
<polygon fill="#ffffb3" stroke="transparent" points="147.5,-10 147.5,-30 167.5,-30 167.5,-10 147.5,-10"/>
<text text-anchor="start" x="171.13" y="-15.4" font-family="Times-12" font-size="14.00"> &#160;Declarations</text>
<polygon fill="#8dd3c7" stroke="transparent" points="260.5,-10 260.5,-30 280.5,-30 280.5,-10 260.5,-10"/>
<text text-anchor="start" x="284.23" y="-15.4" font-family="Times-12" font-size="14.00"> &#160;Module</text>
<polygon fill="#80b1d3" stroke="transparent" points="346.5,-10 346.5,-30 366.5,-30 366.5,-10 346.5,-10"/>
<text text-anchor="start" x="370.28" y="-15.4" font-family="Times-12" font-size="14.00"> &#160;Bootstrap</text>
<polygon fill="#fdb462" stroke="transparent" points="443.5,-10 443.5,-30 463.5,-30 463.5,-10 443.5,-10"/>
<text text-anchor="start" x="467.17" y="-15.4" font-family="Times-12" font-size="14.00"> &#160;Providers</text>
<polygon fill="#fb8072" stroke="transparent" points="539.5,-10 539.5,-30 559.5,-30 559.5,-10 539.5,-10"/>
<text text-anchor="start" x="563.23" y="-15.4" font-family="Times-12" font-size="14.00"> &#160;Exports</text>
<g id="clust1" class="cluster">
<title>cluster_V1Module</title>
<polygon fill="none" stroke="black" stroke-dasharray="1,5" points="8,-70 8,-195 755,-195 755,-70 8,-70"/>
</g>
<g id="clust3" class="cluster">
<title>cluster_V1Module_imports</title>
<polygon fill="none" stroke="black" points="16,-78 16,-130 747,-130 747,-78 16,-78"/>
</g>
<!-- DashboardModule -->
<g id="node1" class="node">
<title>DashboardModule</title>
<polygon fill="#8dd3c7" stroke="black" points="739.19,-122 736.19,-126 715.19,-126 712.19,-122 618.81,-122 618.81,-86 739.19,-86 739.19,-122"/>
<text text-anchor="middle" x="679" y="-99.8" font-family="Times,serif" font-size="14.00">DashboardModule</text>
</g>
<!-- V1Module -->
<g id="node7" class="node">
<title>V1Module</title>
<polygon fill="#8dd3c7" stroke="black" points="388.16,-187 385.16,-191 364.16,-191 361.16,-187 311.84,-187 311.84,-151 388.16,-151 388.16,-187"/>
<text text-anchor="middle" x="350" y="-164.8" font-family="Times,serif" font-size="14.00">V1Module</text>
</g>
<!-- DashboardModule&#45;&gt;V1Module -->
<g id="edge1" class="edge">
<title>DashboardModule&#45;&gt;V1Module</title>
<path fill="none" stroke="black" d="M679,-122.28C679,-143.32 679,-175 679,-175 679,-175 398.38,-175 398.38,-175"/>
<polygon fill="black" stroke="black" points="398.38,-171.5 388.38,-175 398.38,-178.5 398.38,-171.5"/>
</g>
<!-- FileServiceModule -->
<g id="node2" class="node">
<title>FileServiceModule</title>
<polygon fill="#8dd3c7" stroke="black" points="600.81,-122 597.81,-126 576.81,-126 573.81,-122 477.19,-122 477.19,-86 600.81,-86 600.81,-122"/>
<text text-anchor="middle" x="539" y="-99.8" font-family="Times,serif" font-size="14.00">FileServiceModule</text>
</g>
<!-- FileServiceModule&#45;&gt;V1Module -->
<g id="edge2" class="edge">
<title>FileServiceModule&#45;&gt;V1Module</title>
<path fill="none" stroke="black" d="M539,-122.02C539,-139.37 539,-163 539,-163 539,-163 398.25,-163 398.25,-163"/>
<polygon fill="black" stroke="black" points="398.25,-159.5 388.25,-163 398.25,-166.5 398.25,-159.5"/>
</g>
<!-- OthersModule -->
<g id="node3" class="node">
<title>OthersModule</title>
<polygon fill="#8dd3c7" stroke="black" points="459.37,-122 456.37,-126 435.37,-126 432.37,-122 362.63,-122 362.63,-86 459.37,-86 459.37,-122"/>
<text text-anchor="middle" x="411" y="-99.8" font-family="Times,serif" font-size="14.00">OthersModule</text>
</g>
<!-- OthersModule&#45;&gt;V1Module -->
<g id="edge3" class="edge">
<title>OthersModule&#45;&gt;V1Module</title>
<path fill="none" stroke="black" d="M375.45,-122.11C375.45,-122.11 375.45,-140.99 375.45,-140.99"/>
<polygon fill="black" stroke="black" points="371.95,-140.99 375.45,-150.99 378.95,-140.99 371.95,-140.99"/>
</g>
<!-- PaymentModule -->
<g id="node4" class="node">
<title>PaymentModule</title>
<polygon fill="#8dd3c7" stroke="black" points="344.04,-122 341.04,-126 320.04,-126 317.04,-122 235.96,-122 235.96,-86 344.04,-86 344.04,-122"/>
<text text-anchor="middle" x="290" y="-99.8" font-family="Times,serif" font-size="14.00">PaymentModule</text>
</g>
<!-- PaymentModule&#45;&gt;V1Module -->
<g id="edge4" class="edge">
<title>PaymentModule&#45;&gt;V1Module</title>
<path fill="none" stroke="black" d="M327.97,-122.11C327.97,-122.11 327.97,-140.99 327.97,-140.99"/>
<polygon fill="black" stroke="black" points="324.47,-140.99 327.97,-150.99 331.47,-140.99 324.47,-140.99"/>
</g>
<!-- PlansModule -->
<g id="node5" class="node">
<title>PlansModule</title>
<polygon fill="#8dd3c7" stroke="black" points="217.88,-122 214.88,-126 193.88,-126 190.88,-122 128.12,-122 128.12,-86 217.88,-86 217.88,-122"/>
<text text-anchor="middle" x="173" y="-99.8" font-family="Times,serif" font-size="14.00">PlansModule</text>
</g>
<!-- PlansModule&#45;&gt;V1Module -->
<g id="edge5" class="edge">
<title>PlansModule&#45;&gt;V1Module</title>
<path fill="none" stroke="black" d="M173,-122.02C173,-139.37 173,-163 173,-163 173,-163 301.59,-163 301.59,-163"/>
<polygon fill="black" stroke="black" points="301.59,-166.5 311.59,-163 301.59,-159.5 301.59,-166.5"/>
</g>
<!-- UserModule -->
<g id="node6" class="node">
<title>UserModule</title>
<polygon fill="#8dd3c7" stroke="black" points="109.98,-122 106.98,-126 85.98,-126 82.98,-122 24.02,-122 24.02,-86 109.98,-86 109.98,-122"/>
<text text-anchor="middle" x="67" y="-99.8" font-family="Times,serif" font-size="14.00">UserModule</text>
</g>
<!-- UserModule&#45;&gt;V1Module -->
<g id="edge6" class="edge">
<title>UserModule&#45;&gt;V1Module</title>
<path fill="none" stroke="black" d="M67,-122.28C67,-143.32 67,-175 67,-175 67,-175 301.83,-175 301.83,-175"/>
<polygon fill="black" stroke="black" points="301.83,-178.5 311.83,-175 301.83,-171.5 301.83,-178.5"/>
</g>
</g>
</svg>
