<?xml version="1.0" encoding="UTF-8" standalone="no"?>
<!DOCTYPE svg PUBLIC "-//W3C//DTD SVG 1.1//EN"
 "http://www.w3.org/Graphics/SVG/1.1/DTD/svg11.dtd">
<!-- Generated by graphviz version 2.47.0 (20210316.0004)
 -->
<!-- Title: dependencies Pages: 1 -->
<svg width="504pt" height="284pt"
 viewBox="0.00 0.00 504.00 284.00" xmlns="http://www.w3.org/2000/svg" xmlns:xlink="http://www.w3.org/1999/xlink">
<g id="graph0" class="graph" transform="scale(1 1) rotate(0) translate(4 280)">
<title>dependencies</title>
<polygon fill="white" stroke="transparent" points="-4,4 -4,-280 500,-280 500,4 -4,4"/>
<text text-anchor="start" x="227.01" y="-42.4" font-family="Times-12" font-weight="bold" font-size="14.00">Legend</text>
<polygon fill="#ffffb3" stroke="transparent" points="14,-10 14,-30 34,-30 34,-10 14,-10"/>
<text text-anchor="start" x="37.63" y="-15.4" font-family="Times-12" font-size="14.00"> &#160;Declarations</text>
<polygon fill="#8dd3c7" stroke="transparent" points="127,-10 127,-30 147,-30 147,-10 127,-10"/>
<text text-anchor="start" x="150.73" y="-15.4" font-family="Times-12" font-size="14.00"> &#160;Module</text>
<polygon fill="#80b1d3" stroke="transparent" points="213,-10 213,-30 233,-30 233,-10 213,-10"/>
<text text-anchor="start" x="236.78" y="-15.4" font-family="Times-12" font-size="14.00"> &#160;Bootstrap</text>
<polygon fill="#fdb462" stroke="transparent" points="310,-10 310,-30 330,-30 330,-10 310,-10"/>
<text text-anchor="start" x="333.67" y="-15.4" font-family="Times-12" font-size="14.00"> &#160;Providers</text>
<polygon fill="#fb8072" stroke="transparent" points="406,-10 406,-30 426,-30 426,-10 406,-10"/>
<text text-anchor="start" x="429.73" y="-15.4" font-family="Times-12" font-size="14.00"> &#160;Exports</text>
<g id="clust1" class="cluster">
<title>cluster_FileServiceModule</title>
<polygon fill="none" stroke="black" stroke-dasharray="1,5" points="89,-70 89,-268 407,-268 407,-70 89,-70"/>
</g>
<g id="clust6" class="cluster">
<title>cluster_FileServiceModule_providers</title>
<polygon fill="none" stroke="black" points="97,-78 97,-130 399,-130 399,-78 97,-78"/>
</g>
<g id="clust4" class="cluster">
<title>cluster_FileServiceModule_exports</title>
<polygon fill="none" stroke="black" points="130,-208 130,-260 366,-260 366,-208 130,-208"/>
</g>
<!-- FileServiceService  -->
<g id="node1" class="node">
<title>FileServiceService </title>
<polygon fill="#fb8072" stroke="black" points="357.73,-252 232.27,-252 232.27,-216 357.73,-216 357.73,-252"/>
<text text-anchor="middle" x="295" y="-229.8" font-family="Times,serif" font-size="14.00">FileServiceService </text>
</g>
<!-- S3Service  -->
<g id="node2" class="node">
<title>S3Service </title>
<polygon fill="#fb8072" stroke="black" points="214.26,-252 137.74,-252 137.74,-216 214.26,-216 214.26,-252"/>
<text text-anchor="middle" x="176" y="-229.8" font-family="Times,serif" font-size="14.00">S3Service </text>
</g>
<!-- FileServiceModule -->
<g id="node3" class="node">
<title>FileServiceModule</title>
<polygon fill="#8dd3c7" stroke="black" points="271.81,-187 268.81,-191 247.81,-191 244.81,-187 148.19,-187 148.19,-151 271.81,-151 271.81,-187"/>
<text text-anchor="middle" x="210" y="-164.8" font-family="Times,serif" font-size="14.00">FileServiceModule</text>
</g>
<!-- FileServiceModule&#45;&gt;FileServiceService  -->
<g id="edge1" class="edge">
<title>FileServiceModule&#45;&gt;FileServiceService </title>
<path fill="none" stroke="black" stroke-dasharray="5,2" d="M252.02,-187.11C252.02,-187.11 252.02,-205.99 252.02,-205.99"/>
<polygon fill="black" stroke="black" points="248.52,-205.99 252.02,-215.99 255.52,-205.99 248.52,-205.99"/>
</g>
<!-- FileServiceModule&#45;&gt;S3Service  -->
<g id="edge2" class="edge">
<title>FileServiceModule&#45;&gt;S3Service </title>
<path fill="none" stroke="black" stroke-dasharray="5,2" d="M181.24,-187.11C181.24,-187.11 181.24,-205.99 181.24,-205.99"/>
<polygon fill="black" stroke="black" points="177.74,-205.99 181.24,-215.99 184.74,-205.99 177.74,-205.99"/>
</g>
<!-- FileServiceService -->
<g id="node4" class="node">
<title>FileServiceService</title>
<ellipse fill="#fdb462" stroke="black" cx="307" cy="-104" rx="83.94" ry="18"/>
<text text-anchor="middle" x="307" y="-99.8" font-family="Times,serif" font-size="14.00">FileServiceService</text>
</g>
<!-- FileServiceService&#45;&gt;FileServiceModule -->
<g id="edge3" class="edge">
<title>FileServiceService&#45;&gt;FileServiceModule</title>
<path fill="none" stroke="black" d="M247.34,-116.84C247.34,-116.84 247.34,-140.52 247.34,-140.52"/>
<polygon fill="black" stroke="black" points="243.84,-140.52 247.34,-150.52 250.84,-140.52 243.84,-140.52"/>
</g>
<!-- S3Service -->
<g id="node5" class="node">
<title>S3Service</title>
<ellipse fill="#fdb462" stroke="black" cx="155" cy="-104" rx="50.38" ry="18"/>
<text text-anchor="middle" x="155" y="-99.8" font-family="Times,serif" font-size="14.00">S3Service</text>
</g>
<!-- S3Service&#45;&gt;FileServiceModule -->
<g id="edge4" class="edge">
<title>S3Service&#45;&gt;FileServiceModule</title>
<path fill="none" stroke="black" d="M176.77,-120.4C176.77,-120.4 176.77,-140.54 176.77,-140.54"/>
<polygon fill="black" stroke="black" points="173.27,-140.54 176.77,-150.54 180.27,-140.54 173.27,-140.54"/>
</g>
</g>
</svg>
